<mxfile host="app.diagrams.net" modified="2023-04-03T10:24:46.349Z" agent="Mozilla/5.0 (Windows NT 10.0; Win64; x64; rv:109.0) Gecko/20100101 Firefox/111.0" etag="wlxI7GYTHQ86JlBuXNm2" version="21.1.4" type="github">
  <diagram name="Page-1" id="2c0d36ab-eaac-3732-788b-9136903baeff">
    <mxGraphModel dx="4833.5" dy="2853" grid="1" gridSize="10" guides="1" tooltips="1" connect="1" arrows="1" fold="1" page="1" pageScale="1.5" pageWidth="1169" pageHeight="827" background="none" math="0" shadow="0">
      <root>
        <mxCell id="0" />
        <mxCell id="1" parent="0" />
        <mxCell id="123" value="" style="fillColor=#AE4132;strokeColor=none;opacity=30;" parent="1" vertex="1">
          <mxGeometry x="747" y="175.50000000000003" width="210" height="99.99999999999994" as="geometry" />
        </mxCell>
        <mxCell id="122" value="" style="fillColor=#10739E;strokeColor=none;opacity=30;" parent="1" vertex="1">
          <mxGeometry x="97" y="325.5" width="1470" height="99.99999999999994" as="geometry" />
        </mxCell>
        <mxCell id="111" value="" style="fillColor=#D9EAD3;strokeColor=none" parent="1" vertex="1">
          <mxGeometry x="480" y="450.0000000000001" width="150" height="80" as="geometry" />
        </mxCell>
        <mxCell id="108" value="" style="fillColor=#12AAB5;strokeColor=none;opacity=30;" parent="1" vertex="1">
          <mxGeometry x="-19.999999999999986" y="450" width="150" height="80" as="geometry" />
        </mxCell>
        <mxCell id="2" value="Dashboard" style="rounded=1;fillColor=#23445D;gradientColor=none;strokeColor=none;fontColor=#FFFFFF;fontStyle=1;fontFamily=Tahoma;fontSize=14" parent="1" vertex="1">
          <mxGeometry x="757" y="185.5" width="190" height="80" as="geometry" />
        </mxCell>
        <mxCell id="4" value="Help" style="rounded=1;fillColor=#23445D;gradientColor=none;strokeColor=none;fontColor=#FFFFFF;fontStyle=1;fontFamily=Tahoma;fontSize=14" parent="1" vertex="1">
          <mxGeometry x="1361.9999999999998" y="335.5" width="190" height="80" as="geometry" />
        </mxCell>
        <mxCell id="9" value="" style="edgeStyle=elbowEdgeStyle;elbow=vertical;strokeWidth=2;rounded=0" parent="1" source="2" target="4" edge="1">
          <mxGeometry x="337" y="215.5" width="100" height="100" as="geometry">
            <mxPoint x="337" y="315.5" as="sourcePoint" />
            <mxPoint x="437" y="215.5" as="targetPoint" />
          </mxGeometry>
        </mxCell>
        <mxCell id="10" value="Preferences" style="rounded=1;fillColor=#23445D;gradientColor=none;strokeColor=none;fontColor=#FFFFFF;fontStyle=1;fontFamily=Tahoma;fontSize=14" parent="1" vertex="1">
          <mxGeometry x="947" y="335.5" width="190" height="80" as="geometry" />
        </mxCell>
        <mxCell id="-G2UdXY7vb77so0GBM8C-166" value="" style="edgeStyle=orthogonalEdgeStyle;rounded=0;orthogonalLoop=1;jettySize=auto;html=1;" edge="1" parent="1" source="12" target="15">
          <mxGeometry relative="1" as="geometry" />
        </mxCell>
        <mxCell id="-G2UdXY7vb77so0GBM8C-169" style="edgeStyle=orthogonalEdgeStyle;rounded=0;orthogonalLoop=1;jettySize=auto;html=1;" edge="1" parent="1" source="12" target="-G2UdXY7vb77so0GBM8C-168">
          <mxGeometry relative="1" as="geometry" />
        </mxCell>
        <mxCell id="-G2UdXY7vb77so0GBM8C-176" style="edgeStyle=orthogonalEdgeStyle;rounded=0;orthogonalLoop=1;jettySize=auto;html=1;entryX=0;entryY=0.5;entryDx=0;entryDy=0;" edge="1" parent="1" source="12" target="-G2UdXY7vb77so0GBM8C-173">
          <mxGeometry relative="1" as="geometry" />
        </mxCell>
        <mxCell id="-G2UdXY7vb77so0GBM8C-177" style="edgeStyle=orthogonalEdgeStyle;rounded=0;orthogonalLoop=1;jettySize=auto;html=1;entryX=1;entryY=0.5;entryDx=0;entryDy=0;" edge="1" parent="1" source="12" target="-G2UdXY7vb77so0GBM8C-171">
          <mxGeometry relative="1" as="geometry" />
        </mxCell>
        <mxCell id="-G2UdXY7vb77so0GBM8C-183" style="edgeStyle=orthogonalEdgeStyle;rounded=0;orthogonalLoop=1;jettySize=auto;html=1;entryX=0.5;entryY=0;entryDx=0;entryDy=0;" edge="1" parent="1" source="12" target="-G2UdXY7vb77so0GBM8C-182">
          <mxGeometry relative="1" as="geometry" />
        </mxCell>
        <mxCell id="12" value="Configuration" style="rounded=1;fillColor=#23445D;gradientColor=none;strokeColor=none;fontColor=#FFFFFF;fontStyle=1;fontFamily=Tahoma;fontSize=14" parent="1" vertex="1">
          <mxGeometry x="561.9999999999999" y="335.5" width="190" height="80" as="geometry" />
        </mxCell>
        <mxCell id="-G2UdXY7vb77so0GBM8C-127" style="edgeStyle=orthogonalEdgeStyle;rounded=0;orthogonalLoop=1;jettySize=auto;html=1;" edge="1" parent="1" source="13" target="14">
          <mxGeometry relative="1" as="geometry" />
        </mxCell>
        <mxCell id="-G2UdXY7vb77so0GBM8C-128" style="edgeStyle=orthogonalEdgeStyle;rounded=0;orthogonalLoop=1;jettySize=auto;html=1;" edge="1" parent="1" source="13" target="-G2UdXY7vb77so0GBM8C-124">
          <mxGeometry relative="1" as="geometry" />
        </mxCell>
        <mxCell id="-G2UdXY7vb77so0GBM8C-138" style="edgeStyle=orthogonalEdgeStyle;rounded=0;orthogonalLoop=1;jettySize=auto;html=1;entryX=1;entryY=0.5;entryDx=0;entryDy=0;" edge="1" parent="1" source="13" target="-G2UdXY7vb77so0GBM8C-129">
          <mxGeometry relative="1" as="geometry" />
        </mxCell>
        <mxCell id="-G2UdXY7vb77so0GBM8C-139" style="edgeStyle=orthogonalEdgeStyle;rounded=0;orthogonalLoop=1;jettySize=auto;html=1;entryX=-0.026;entryY=0.542;entryDx=0;entryDy=0;entryPerimeter=0;" edge="1" parent="1" source="13" target="-G2UdXY7vb77so0GBM8C-133">
          <mxGeometry relative="1" as="geometry">
            <Array as="points">
              <mxPoint x="202" y="600" />
              <mxPoint x="266" y="600" />
            </Array>
          </mxGeometry>
        </mxCell>
        <mxCell id="-G2UdXY7vb77so0GBM8C-140" style="edgeStyle=orthogonalEdgeStyle;rounded=0;orthogonalLoop=1;jettySize=auto;html=1;entryX=1;entryY=0.5;entryDx=0;entryDy=0;" edge="1" parent="1" source="13" target="-G2UdXY7vb77so0GBM8C-131">
          <mxGeometry relative="1" as="geometry" />
        </mxCell>
        <mxCell id="-G2UdXY7vb77so0GBM8C-141" style="edgeStyle=orthogonalEdgeStyle;rounded=0;orthogonalLoop=1;jettySize=auto;html=1;entryX=0;entryY=0.5;entryDx=0;entryDy=0;" edge="1" parent="1" source="13" target="-G2UdXY7vb77so0GBM8C-135">
          <mxGeometry relative="1" as="geometry" />
        </mxCell>
        <mxCell id="-G2UdXY7vb77so0GBM8C-158" style="edgeStyle=orthogonalEdgeStyle;rounded=0;orthogonalLoop=1;jettySize=auto;html=1;entryX=1;entryY=0.5;entryDx=0;entryDy=0;" edge="1" parent="1" source="13" target="-G2UdXY7vb77so0GBM8C-142">
          <mxGeometry relative="1" as="geometry" />
        </mxCell>
        <mxCell id="-G2UdXY7vb77so0GBM8C-159" style="edgeStyle=orthogonalEdgeStyle;rounded=0;orthogonalLoop=1;jettySize=auto;html=1;entryX=1;entryY=0.5;entryDx=0;entryDy=0;" edge="1" parent="1" source="13" target="-G2UdXY7vb77so0GBM8C-144">
          <mxGeometry relative="1" as="geometry" />
        </mxCell>
        <mxCell id="-G2UdXY7vb77so0GBM8C-160" style="edgeStyle=orthogonalEdgeStyle;rounded=0;orthogonalLoop=1;jettySize=auto;html=1;entryX=1;entryY=0.5;entryDx=0;entryDy=0;" edge="1" parent="1" source="13" target="-G2UdXY7vb77so0GBM8C-150">
          <mxGeometry relative="1" as="geometry" />
        </mxCell>
        <mxCell id="-G2UdXY7vb77so0GBM8C-161" style="edgeStyle=orthogonalEdgeStyle;rounded=0;orthogonalLoop=1;jettySize=auto;html=1;entryX=1;entryY=0.5;entryDx=0;entryDy=0;" edge="1" parent="1" source="13" target="-G2UdXY7vb77so0GBM8C-152">
          <mxGeometry relative="1" as="geometry" />
        </mxCell>
        <mxCell id="-G2UdXY7vb77so0GBM8C-162" style="edgeStyle=orthogonalEdgeStyle;rounded=0;orthogonalLoop=1;jettySize=auto;html=1;entryX=0;entryY=0.5;entryDx=0;entryDy=0;" edge="1" parent="1" source="13" target="-G2UdXY7vb77so0GBM8C-146">
          <mxGeometry relative="1" as="geometry" />
        </mxCell>
        <mxCell id="-G2UdXY7vb77so0GBM8C-163" style="edgeStyle=orthogonalEdgeStyle;rounded=0;orthogonalLoop=1;jettySize=auto;html=1;entryX=0;entryY=0.5;entryDx=0;entryDy=0;" edge="1" parent="1" source="13" target="-G2UdXY7vb77so0GBM8C-148">
          <mxGeometry relative="1" as="geometry" />
        </mxCell>
        <mxCell id="-G2UdXY7vb77so0GBM8C-164" style="edgeStyle=orthogonalEdgeStyle;rounded=0;orthogonalLoop=1;jettySize=auto;html=1;entryX=0;entryY=0.5;entryDx=0;entryDy=0;" edge="1" parent="1" source="13" target="-G2UdXY7vb77so0GBM8C-154">
          <mxGeometry relative="1" as="geometry" />
        </mxCell>
        <mxCell id="-G2UdXY7vb77so0GBM8C-165" style="edgeStyle=orthogonalEdgeStyle;rounded=0;orthogonalLoop=1;jettySize=auto;html=1;entryX=0;entryY=0.5;entryDx=0;entryDy=0;" edge="1" parent="1" source="13" target="-G2UdXY7vb77so0GBM8C-156">
          <mxGeometry relative="1" as="geometry" />
        </mxCell>
        <mxCell id="-G2UdXY7vb77so0GBM8C-200" style="edgeStyle=orthogonalEdgeStyle;rounded=0;orthogonalLoop=1;jettySize=auto;html=1;entryX=1;entryY=0.5;entryDx=0;entryDy=0;" edge="1" parent="1" source="13" target="-G2UdXY7vb77so0GBM8C-184">
          <mxGeometry relative="1" as="geometry" />
        </mxCell>
        <mxCell id="-G2UdXY7vb77so0GBM8C-218" style="edgeStyle=orthogonalEdgeStyle;rounded=0;orthogonalLoop=1;jettySize=auto;html=1;entryX=0;entryY=0.5;entryDx=0;entryDy=0;" edge="1" parent="1" source="13" target="-G2UdXY7vb77so0GBM8C-189">
          <mxGeometry relative="1" as="geometry" />
        </mxCell>
        <mxCell id="-G2UdXY7vb77so0GBM8C-219" style="edgeStyle=orthogonalEdgeStyle;rounded=0;orthogonalLoop=1;jettySize=auto;html=1;entryX=1;entryY=0.5;entryDx=0;entryDy=0;" edge="1" parent="1" source="13" target="-G2UdXY7vb77so0GBM8C-186">
          <mxGeometry relative="1" as="geometry" />
        </mxCell>
        <mxCell id="-G2UdXY7vb77so0GBM8C-220" style="edgeStyle=orthogonalEdgeStyle;rounded=0;orthogonalLoop=1;jettySize=auto;html=1;entryX=0;entryY=0.5;entryDx=0;entryDy=0;" edge="1" parent="1" source="13" target="-G2UdXY7vb77so0GBM8C-190">
          <mxGeometry relative="1" as="geometry" />
        </mxCell>
        <mxCell id="-G2UdXY7vb77so0GBM8C-221" style="edgeStyle=orthogonalEdgeStyle;rounded=0;orthogonalLoop=1;jettySize=auto;html=1;entryX=1;entryY=0.5;entryDx=0;entryDy=0;" edge="1" parent="1" source="13" target="-G2UdXY7vb77so0GBM8C-193">
          <mxGeometry relative="1" as="geometry" />
        </mxCell>
        <mxCell id="-G2UdXY7vb77so0GBM8C-222" style="edgeStyle=orthogonalEdgeStyle;rounded=0;orthogonalLoop=1;jettySize=auto;html=1;entryX=0;entryY=0.5;entryDx=0;entryDy=0;" edge="1" parent="1" source="13" target="-G2UdXY7vb77so0GBM8C-197">
          <mxGeometry relative="1" as="geometry" />
        </mxCell>
        <mxCell id="-G2UdXY7vb77so0GBM8C-223" style="edgeStyle=orthogonalEdgeStyle;rounded=0;orthogonalLoop=1;jettySize=auto;html=1;entryX=1;entryY=0.5;entryDx=0;entryDy=0;" edge="1" parent="1" source="13" target="-G2UdXY7vb77so0GBM8C-194">
          <mxGeometry relative="1" as="geometry" />
        </mxCell>
        <mxCell id="-G2UdXY7vb77so0GBM8C-224" style="edgeStyle=orthogonalEdgeStyle;rounded=0;orthogonalLoop=1;jettySize=auto;html=1;entryX=0;entryY=0.5;entryDx=0;entryDy=0;" edge="1" parent="1" source="13" target="-G2UdXY7vb77so0GBM8C-199">
          <mxGeometry relative="1" as="geometry" />
        </mxCell>
        <mxCell id="-G2UdXY7vb77so0GBM8C-225" style="edgeStyle=orthogonalEdgeStyle;rounded=0;orthogonalLoop=1;jettySize=auto;html=1;entryX=1;entryY=0.5;entryDx=0;entryDy=0;" edge="1" parent="1" source="13" target="-G2UdXY7vb77so0GBM8C-202">
          <mxGeometry relative="1" as="geometry" />
        </mxCell>
        <mxCell id="-G2UdXY7vb77so0GBM8C-226" style="edgeStyle=orthogonalEdgeStyle;rounded=0;orthogonalLoop=1;jettySize=auto;html=1;entryX=0;entryY=0.5;entryDx=0;entryDy=0;" edge="1" parent="1" source="13" target="-G2UdXY7vb77so0GBM8C-207">
          <mxGeometry relative="1" as="geometry" />
        </mxCell>
        <mxCell id="-G2UdXY7vb77so0GBM8C-227" style="edgeStyle=orthogonalEdgeStyle;rounded=0;orthogonalLoop=1;jettySize=auto;html=1;entryX=1;entryY=0.75;entryDx=0;entryDy=0;" edge="1" parent="1" source="13" target="-G2UdXY7vb77so0GBM8C-204">
          <mxGeometry relative="1" as="geometry" />
        </mxCell>
        <mxCell id="-G2UdXY7vb77so0GBM8C-228" style="edgeStyle=orthogonalEdgeStyle;rounded=0;orthogonalLoop=1;jettySize=auto;html=1;entryX=0;entryY=0.75;entryDx=0;entryDy=0;" edge="1" parent="1" source="13" target="-G2UdXY7vb77so0GBM8C-209">
          <mxGeometry relative="1" as="geometry" />
        </mxCell>
        <mxCell id="-G2UdXY7vb77so0GBM8C-229" style="edgeStyle=orthogonalEdgeStyle;rounded=0;orthogonalLoop=1;jettySize=auto;html=1;entryX=1;entryY=0.5;entryDx=0;entryDy=0;" edge="1" parent="1" source="13" target="-G2UdXY7vb77so0GBM8C-211">
          <mxGeometry relative="1" as="geometry" />
        </mxCell>
        <mxCell id="-G2UdXY7vb77so0GBM8C-230" style="edgeStyle=orthogonalEdgeStyle;rounded=0;orthogonalLoop=1;jettySize=auto;html=1;entryX=0;entryY=0.5;entryDx=0;entryDy=0;" edge="1" parent="1" source="13" target="-G2UdXY7vb77so0GBM8C-214">
          <mxGeometry relative="1" as="geometry" />
        </mxCell>
        <mxCell id="13" value="Forms" style="rounded=1;fillColor=#23445D;gradientColor=none;strokeColor=none;fontColor=#FFFFFF;fontStyle=1;fontFamily=Tahoma;fontSize=14" parent="1" vertex="1">
          <mxGeometry x="107" y="335.5" width="190" height="80" as="geometry" />
        </mxCell>
        <mxCell id="14" value="Foundation" style="rounded=1;fillColor=#23445D;gradientColor=none;strokeColor=none;fontColor=#FFFFFF;fontStyle=1;fontFamily=Tahoma;fontSize=14" parent="1" vertex="1">
          <mxGeometry x="-10" y="460" width="130" height="60" as="geometry" />
        </mxCell>
        <mxCell id="15" value="Groups" style="rounded=1;fillColor=#23445D;gradientColor=none;strokeColor=none;fontColor=#FFFFFF;fontStyle=1;fontFamily=Tahoma;fontSize=14" parent="1" vertex="1">
          <mxGeometry x="490" y="460" width="130" height="60" as="geometry" />
        </mxCell>
        <mxCell id="59" value="" style="edgeStyle=elbowEdgeStyle;elbow=vertical;strokeWidth=2;rounded=0" parent="1" source="2" target="12" edge="1">
          <mxGeometry x="347" y="225.5" width="100" height="100" as="geometry">
            <mxPoint x="861.9999999999999" y="275.5" as="sourcePoint" />
            <mxPoint x="1466.9999999999998" y="345.5" as="targetPoint" />
          </mxGeometry>
        </mxCell>
        <mxCell id="61" value="" style="edgeStyle=elbowEdgeStyle;elbow=vertical;strokeWidth=2;rounded=0" parent="1" source="2" target="13" edge="1">
          <mxGeometry x="-23" y="135.5" width="100" height="100" as="geometry">
            <mxPoint x="-23" y="235.5" as="sourcePoint" />
            <mxPoint x="77" y="135.5" as="targetPoint" />
          </mxGeometry>
        </mxCell>
        <mxCell id="70" value="" style="edgeStyle=elbowEdgeStyle;elbow=horizontal;strokeWidth=2;rounded=0" parent="1" target="26" edge="1">
          <mxGeometry x="-23" y="135.5" width="100" height="100" as="geometry">
            <mxPoint x="417" y="485.5" as="sourcePoint" />
            <mxPoint x="77" y="135.5" as="targetPoint" />
            <Array as="points">
              <mxPoint x="397" y="535.5" />
            </Array>
          </mxGeometry>
        </mxCell>
        <mxCell id="71" value="" style="edgeStyle=elbowEdgeStyle;elbow=horizontal;strokeWidth=2;rounded=0" parent="1" target="27" edge="1">
          <mxGeometry x="-23" y="135.5" width="100" height="100" as="geometry">
            <mxPoint x="417" y="485.5" as="sourcePoint" />
            <mxPoint x="77" y="135.5" as="targetPoint" />
            <Array as="points">
              <mxPoint x="397" y="575.5" />
            </Array>
          </mxGeometry>
        </mxCell>
        <mxCell id="72" value="" style="edgeStyle=elbowEdgeStyle;elbow=horizontal;strokeWidth=2;rounded=0" parent="1" target="28" edge="1">
          <mxGeometry x="-23" y="135.5" width="100" height="100" as="geometry">
            <mxPoint x="417" y="485.5" as="sourcePoint" />
            <mxPoint x="77" y="135.5" as="targetPoint" />
            <Array as="points">
              <mxPoint x="397" y="615.5" />
            </Array>
          </mxGeometry>
        </mxCell>
        <mxCell id="103" value="" style="edgeStyle=elbowEdgeStyle;elbow=vertical;strokeWidth=2;rounded=0" parent="1" source="10" edge="1">
          <mxGeometry x="-23" y="135.5" width="100" height="100" as="geometry">
            <mxPoint x="-23" y="235.5" as="sourcePoint" />
            <mxPoint x="1042" y="455.5" as="targetPoint" />
          </mxGeometry>
        </mxCell>
        <mxCell id="-G2UdXY7vb77so0GBM8C-123" value="" style="fillColor=#12AAB5;strokeColor=none;opacity=30;" vertex="1" parent="1">
          <mxGeometry x="270" y="450" width="150" height="80" as="geometry" />
        </mxCell>
        <mxCell id="-G2UdXY7vb77so0GBM8C-124" value="General&#xa;disclosures" style="rounded=1;fillColor=#23445D;gradientColor=none;strokeColor=none;fontColor=#FFFFFF;fontStyle=1;fontFamily=Tahoma;fontSize=14" vertex="1" parent="1">
          <mxGeometry x="280" y="460" width="130" height="60" as="geometry" />
        </mxCell>
        <mxCell id="-G2UdXY7vb77so0GBM8C-129" value="" style="fillColor=#12AAB5;strokeColor=none;opacity=30;" vertex="1" parent="1">
          <mxGeometry x="-19.999999999999986" y="560" width="150" height="80" as="geometry" />
        </mxCell>
        <mxCell id="-G2UdXY7vb77so0GBM8C-130" value="Material topics" style="rounded=1;fillColor=#23445D;gradientColor=none;strokeColor=none;fontColor=#FFFFFF;fontStyle=1;fontFamily=Tahoma;fontSize=14" vertex="1" parent="1">
          <mxGeometry x="-10" y="570" width="130" height="60" as="geometry" />
        </mxCell>
        <mxCell id="-G2UdXY7vb77so0GBM8C-131" value="" style="fillColor=#12AAB5;strokeColor=none;opacity=30;" vertex="1" parent="1">
          <mxGeometry x="-19.999999999999986" y="680" width="150" height="80" as="geometry" />
        </mxCell>
        <mxCell id="-G2UdXY7vb77so0GBM8C-132" value="Coal" style="rounded=1;fillColor=#23445D;gradientColor=none;strokeColor=none;fontColor=#FFFFFF;fontStyle=1;fontFamily=Tahoma;fontSize=14" vertex="1" parent="1">
          <mxGeometry x="-10" y="690" width="130" height="60" as="geometry" />
        </mxCell>
        <mxCell id="-G2UdXY7vb77so0GBM8C-133" value="" style="fillColor=#12AAB5;strokeColor=none;opacity=30;" vertex="1" parent="1">
          <mxGeometry x="270" y="560" width="150" height="80" as="geometry" />
        </mxCell>
        <mxCell id="-G2UdXY7vb77so0GBM8C-134" value="Oil and Gas" style="rounded=1;fillColor=#23445D;gradientColor=none;strokeColor=none;fontColor=#FFFFFF;fontStyle=1;fontFamily=Tahoma;fontSize=14" vertex="1" parent="1">
          <mxGeometry x="280" y="570" width="130" height="60" as="geometry" />
        </mxCell>
        <mxCell id="-G2UdXY7vb77so0GBM8C-135" value="" style="fillColor=#12AAB5;strokeColor=none;opacity=30;" vertex="1" parent="1">
          <mxGeometry x="270" y="680" width="150" height="80" as="geometry" />
        </mxCell>
        <mxCell id="-G2UdXY7vb77so0GBM8C-136" value="Agriculture" style="rounded=1;fillColor=#23445D;gradientColor=none;strokeColor=none;fontColor=#FFFFFF;fontStyle=1;fontFamily=Tahoma;fontSize=14" vertex="1" parent="1">
          <mxGeometry x="280" y="690" width="130" height="60" as="geometry" />
        </mxCell>
        <mxCell id="-G2UdXY7vb77so0GBM8C-142" value="" style="fillColor=#12AAB5;strokeColor=none;opacity=30;" vertex="1" parent="1">
          <mxGeometry x="-17.999999999999986" y="800" width="150" height="80" as="geometry" />
        </mxCell>
        <mxCell id="-G2UdXY7vb77so0GBM8C-143" value="Economic&#xa;performance&#xa;" style="rounded=1;fillColor=#23445D;gradientColor=none;strokeColor=none;fontColor=#FFFFFF;fontStyle=1;fontFamily=Tahoma;fontSize=14" vertex="1" parent="1">
          <mxGeometry x="-8" y="810" width="130" height="60" as="geometry" />
        </mxCell>
        <mxCell id="-G2UdXY7vb77so0GBM8C-144" value="" style="fillColor=#12AAB5;strokeColor=none;opacity=30;" vertex="1" parent="1">
          <mxGeometry x="-17.999999999999986" y="920" width="150" height="80" as="geometry" />
        </mxCell>
        <mxCell id="-G2UdXY7vb77so0GBM8C-145" value="Indirect Economic&#xa;Impact&#xa;" style="rounded=1;fillColor=#23445D;gradientColor=none;strokeColor=none;fontColor=#FFFFFF;fontStyle=1;fontFamily=Tahoma;fontSize=14" vertex="1" parent="1">
          <mxGeometry x="-8" y="930" width="130" height="60" as="geometry" />
        </mxCell>
        <mxCell id="-G2UdXY7vb77so0GBM8C-146" value="" style="fillColor=#12AAB5;strokeColor=none;opacity=30;" vertex="1" parent="1">
          <mxGeometry x="272" y="800" width="150" height="80" as="geometry" />
        </mxCell>
        <mxCell id="-G2UdXY7vb77so0GBM8C-147" value="Market presence" style="rounded=1;fillColor=#23445D;gradientColor=none;strokeColor=none;fontColor=#FFFFFF;fontStyle=1;fontFamily=Tahoma;fontSize=14" vertex="1" parent="1">
          <mxGeometry x="282" y="810" width="130" height="60" as="geometry" />
        </mxCell>
        <mxCell id="-G2UdXY7vb77so0GBM8C-148" value="" style="fillColor=#12AAB5;strokeColor=none;opacity=30;" vertex="1" parent="1">
          <mxGeometry x="272" y="920" width="150" height="80" as="geometry" />
        </mxCell>
        <mxCell id="-G2UdXY7vb77so0GBM8C-149" value="Procurement" style="rounded=1;fillColor=#23445D;gradientColor=none;strokeColor=none;fontColor=#FFFFFF;fontStyle=1;fontFamily=Tahoma;fontSize=14" vertex="1" parent="1">
          <mxGeometry x="282" y="930" width="130" height="60" as="geometry" />
        </mxCell>
        <mxCell id="-G2UdXY7vb77so0GBM8C-150" value="" style="fillColor=#12AAB5;strokeColor=none;opacity=30;" vertex="1" parent="1">
          <mxGeometry x="-19.999999999999986" y="1041" width="150" height="80" as="geometry" />
        </mxCell>
        <mxCell id="-G2UdXY7vb77so0GBM8C-151" value="Anticorruption" style="rounded=1;fillColor=#23445D;gradientColor=none;strokeColor=none;fontColor=#FFFFFF;fontStyle=1;fontFamily=Tahoma;fontSize=14" vertex="1" parent="1">
          <mxGeometry x="-10" y="1051" width="130" height="60" as="geometry" />
        </mxCell>
        <mxCell id="-G2UdXY7vb77so0GBM8C-152" value="" style="fillColor=#12AAB5;strokeColor=none;opacity=30;" vertex="1" parent="1">
          <mxGeometry x="-19.999999999999986" y="1161" width="150" height="80" as="geometry" />
        </mxCell>
        <mxCell id="-G2UdXY7vb77so0GBM8C-153" value="Tax" style="rounded=1;fillColor=#23445D;gradientColor=none;strokeColor=none;fontColor=#FFFFFF;fontStyle=1;fontFamily=Tahoma;fontSize=14" vertex="1" parent="1">
          <mxGeometry x="-10" y="1171" width="130" height="60" as="geometry" />
        </mxCell>
        <mxCell id="-G2UdXY7vb77so0GBM8C-154" value="" style="fillColor=#12AAB5;strokeColor=none;opacity=30;" vertex="1" parent="1">
          <mxGeometry x="270" y="1041" width="150" height="80" as="geometry" />
        </mxCell>
        <mxCell id="-G2UdXY7vb77so0GBM8C-155" value="Anticompetitive" style="rounded=1;fillColor=#23445D;gradientColor=none;strokeColor=none;fontColor=#FFFFFF;fontStyle=1;fontFamily=Tahoma;fontSize=14" vertex="1" parent="1">
          <mxGeometry x="280" y="1051" width="130" height="60" as="geometry" />
        </mxCell>
        <mxCell id="-G2UdXY7vb77so0GBM8C-156" value="" style="fillColor=#12AAB5;strokeColor=none;opacity=30;" vertex="1" parent="1">
          <mxGeometry x="270" y="1161" width="150" height="80" as="geometry" />
        </mxCell>
        <mxCell id="-G2UdXY7vb77so0GBM8C-157" value="Materials" style="rounded=1;fillColor=#23445D;gradientColor=none;strokeColor=none;fontColor=#FFFFFF;fontStyle=1;fontFamily=Tahoma;fontSize=14" vertex="1" parent="1">
          <mxGeometry x="280" y="1171" width="130" height="60" as="geometry" />
        </mxCell>
        <mxCell id="-G2UdXY7vb77so0GBM8C-167" value="" style="fillColor=#D9EAD3;strokeColor=none" vertex="1" parent="1">
          <mxGeometry x="690" y="450.0000000000001" width="150" height="80" as="geometry" />
        </mxCell>
        <mxCell id="-G2UdXY7vb77so0GBM8C-168" value="Users" style="rounded=1;fillColor=#23445D;gradientColor=none;strokeColor=none;fontColor=#FFFFFF;fontStyle=1;fontFamily=Tahoma;fontSize=14" vertex="1" parent="1">
          <mxGeometry x="700" y="460" width="130" height="60" as="geometry" />
        </mxCell>
        <mxCell id="-G2UdXY7vb77so0GBM8C-171" value="" style="fillColor=#D9EAD3;strokeColor=none" vertex="1" parent="1">
          <mxGeometry x="480" y="560.0000000000001" width="150" height="80" as="geometry" />
        </mxCell>
        <mxCell id="-G2UdXY7vb77so0GBM8C-172" value="Permissions" style="rounded=1;fillColor=#23445D;gradientColor=none;strokeColor=none;fontColor=#FFFFFF;fontStyle=1;fontFamily=Tahoma;fontSize=14" vertex="1" parent="1">
          <mxGeometry x="490" y="570" width="130" height="60" as="geometry" />
        </mxCell>
        <mxCell id="-G2UdXY7vb77so0GBM8C-173" value="" style="fillColor=#D9EAD3;strokeColor=none" vertex="1" parent="1">
          <mxGeometry x="690" y="560.0000000000001" width="150" height="80" as="geometry" />
        </mxCell>
        <mxCell id="-G2UdXY7vb77so0GBM8C-174" value="System" style="rounded=1;fillColor=#23445D;gradientColor=none;strokeColor=none;fontColor=#FFFFFF;fontStyle=1;fontFamily=Tahoma;fontSize=14" vertex="1" parent="1">
          <mxGeometry x="700" y="570" width="130" height="60" as="geometry" />
        </mxCell>
        <mxCell id="-G2UdXY7vb77so0GBM8C-178" value="" style="fillColor=#D9EAD3;strokeColor=none" vertex="1" parent="1">
          <mxGeometry x="967" y="450.0000000000001" width="150" height="80" as="geometry" />
        </mxCell>
        <mxCell id="-G2UdXY7vb77so0GBM8C-179" value="Preferences" style="rounded=1;fillColor=#23445D;gradientColor=none;strokeColor=none;fontColor=#FFFFFF;fontStyle=1;fontFamily=Tahoma;fontSize=14" vertex="1" parent="1">
          <mxGeometry x="977" y="460" width="130" height="60" as="geometry" />
        </mxCell>
        <mxCell id="-G2UdXY7vb77so0GBM8C-181" value="" style="fillColor=#D9EAD3;strokeColor=none" vertex="1" parent="1">
          <mxGeometry x="582" y="680.0000000000001" width="150" height="80" as="geometry" />
        </mxCell>
        <mxCell id="-G2UdXY7vb77so0GBM8C-182" value="Workflow" style="rounded=1;fillColor=#23445D;gradientColor=none;strokeColor=none;fontColor=#FFFFFF;fontStyle=1;fontFamily=Tahoma;fontSize=14" vertex="1" parent="1">
          <mxGeometry x="592" y="690" width="130" height="60" as="geometry" />
        </mxCell>
        <mxCell id="-G2UdXY7vb77so0GBM8C-184" value="" style="fillColor=#12AAB5;strokeColor=none;opacity=30;" vertex="1" parent="1">
          <mxGeometry x="-19.999999999999986" y="1280" width="150" height="80" as="geometry" />
        </mxCell>
        <mxCell id="-G2UdXY7vb77so0GBM8C-185" value="Energy" style="rounded=1;fillColor=#23445D;gradientColor=none;strokeColor=none;fontColor=#FFFFFF;fontStyle=1;fontFamily=Tahoma;fontSize=14" vertex="1" parent="1">
          <mxGeometry x="-10" y="1290" width="130" height="60" as="geometry" />
        </mxCell>
        <mxCell id="-G2UdXY7vb77so0GBM8C-186" value="" style="fillColor=#12AAB5;strokeColor=none;opacity=30;" vertex="1" parent="1">
          <mxGeometry x="-19.999999999999986" y="1400" width="150" height="80" as="geometry" />
        </mxCell>
        <mxCell id="-G2UdXY7vb77so0GBM8C-187" value="Biodiversity" style="rounded=1;fillColor=#23445D;gradientColor=none;strokeColor=none;fontColor=#FFFFFF;fontStyle=1;fontFamily=Tahoma;fontSize=14" vertex="1" parent="1">
          <mxGeometry x="-10" y="1410" width="130" height="60" as="geometry" />
        </mxCell>
        <mxCell id="-G2UdXY7vb77so0GBM8C-188" value="" style="fillColor=#12AAB5;strokeColor=none;opacity=30;" vertex="1" parent="1">
          <mxGeometry x="270" y="1280" width="150" height="80" as="geometry" />
        </mxCell>
        <mxCell id="-G2UdXY7vb77so0GBM8C-189" value="Water" style="rounded=1;fillColor=#23445D;gradientColor=none;strokeColor=none;fontColor=#FFFFFF;fontStyle=1;fontFamily=Tahoma;fontSize=14" vertex="1" parent="1">
          <mxGeometry x="280" y="1290" width="130" height="60" as="geometry" />
        </mxCell>
        <mxCell id="-G2UdXY7vb77so0GBM8C-190" value="" style="fillColor=#12AAB5;strokeColor=none;opacity=30;" vertex="1" parent="1">
          <mxGeometry x="270" y="1400" width="150" height="80" as="geometry" />
        </mxCell>
        <mxCell id="-G2UdXY7vb77so0GBM8C-191" value="Emissions" style="rounded=1;fillColor=#23445D;gradientColor=none;strokeColor=none;fontColor=#FFFFFF;fontStyle=1;fontFamily=Tahoma;fontSize=14" vertex="1" parent="1">
          <mxGeometry x="280" y="1410" width="130" height="60" as="geometry" />
        </mxCell>
        <mxCell id="-G2UdXY7vb77so0GBM8C-192" value="" style="fillColor=#12AAB5;strokeColor=none;opacity=30;" vertex="1" parent="1">
          <mxGeometry x="-21.999999999999986" y="1521" width="150" height="80" as="geometry" />
        </mxCell>
        <mxCell id="-G2UdXY7vb77so0GBM8C-193" value="Effluents" style="rounded=1;fillColor=#23445D;gradientColor=none;strokeColor=none;fontColor=#FFFFFF;fontStyle=1;fontFamily=Tahoma;fontSize=14" vertex="1" parent="1">
          <mxGeometry x="-12" y="1531" width="130" height="60" as="geometry" />
        </mxCell>
        <mxCell id="-G2UdXY7vb77so0GBM8C-194" value="" style="fillColor=#12AAB5;strokeColor=none;opacity=30;" vertex="1" parent="1">
          <mxGeometry x="-21.999999999999986" y="1641" width="150" height="80" as="geometry" />
        </mxCell>
        <mxCell id="-G2UdXY7vb77so0GBM8C-195" value="Supplier&#xa;Assessment&#xa;" style="rounded=1;fillColor=#23445D;gradientColor=none;strokeColor=none;fontColor=#FFFFFF;fontStyle=1;fontFamily=Tahoma;fontSize=14" vertex="1" parent="1">
          <mxGeometry x="-12" y="1651" width="130" height="60" as="geometry" />
        </mxCell>
        <mxCell id="-G2UdXY7vb77so0GBM8C-196" value="" style="fillColor=#12AAB5;strokeColor=none;opacity=30;" vertex="1" parent="1">
          <mxGeometry x="268" y="1521" width="150" height="80" as="geometry" />
        </mxCell>
        <mxCell id="-G2UdXY7vb77so0GBM8C-197" value="Waste" style="rounded=1;fillColor=#23445D;gradientColor=none;strokeColor=none;fontColor=#FFFFFF;fontStyle=1;fontFamily=Tahoma;fontSize=14" vertex="1" parent="1">
          <mxGeometry x="278" y="1531" width="130" height="60" as="geometry" />
        </mxCell>
        <mxCell id="-G2UdXY7vb77so0GBM8C-198" value="" style="fillColor=#12AAB5;strokeColor=none;opacity=30;" vertex="1" parent="1">
          <mxGeometry x="268" y="1641" width="150" height="80" as="geometry" />
        </mxCell>
        <mxCell id="-G2UdXY7vb77so0GBM8C-199" value="Employment" style="rounded=1;fillColor=#23445D;gradientColor=none;strokeColor=none;fontColor=#FFFFFF;fontStyle=1;fontFamily=Tahoma;fontSize=14" vertex="1" parent="1">
          <mxGeometry x="278" y="1651" width="130" height="60" as="geometry" />
        </mxCell>
        <mxCell id="-G2UdXY7vb77so0GBM8C-202" value="" style="fillColor=#12AAB5;strokeColor=none;opacity=30;" vertex="1" parent="1">
          <mxGeometry x="-19.999999999999986" y="1760" width="150" height="80" as="geometry" />
        </mxCell>
        <mxCell id="-G2UdXY7vb77so0GBM8C-203" value="Labour relations" style="rounded=1;fillColor=#23445D;gradientColor=none;strokeColor=none;fontColor=#FFFFFF;fontStyle=1;fontFamily=Tahoma;fontSize=14" vertex="1" parent="1">
          <mxGeometry x="-10" y="1770" width="130" height="60" as="geometry" />
        </mxCell>
        <mxCell id="-G2UdXY7vb77so0GBM8C-204" value="" style="fillColor=#12AAB5;strokeColor=none;opacity=30;" vertex="1" parent="1">
          <mxGeometry x="-19.999999999999986" y="1880" width="150" height="80" as="geometry" />
        </mxCell>
        <mxCell id="-G2UdXY7vb77so0GBM8C-205" value="DEI" style="rounded=1;fillColor=#23445D;gradientColor=none;strokeColor=none;fontColor=#FFFFFF;fontStyle=1;fontFamily=Tahoma;fontSize=14" vertex="1" parent="1">
          <mxGeometry x="-10" y="1890" width="130" height="60" as="geometry" />
        </mxCell>
        <mxCell id="-G2UdXY7vb77so0GBM8C-206" value="" style="fillColor=#12AAB5;strokeColor=none;opacity=30;" vertex="1" parent="1">
          <mxGeometry x="270" y="1760" width="150" height="80" as="geometry" />
        </mxCell>
        <mxCell id="-G2UdXY7vb77so0GBM8C-207" value="Training" style="rounded=1;fillColor=#23445D;gradientColor=none;strokeColor=none;fontColor=#FFFFFF;fontStyle=1;fontFamily=Tahoma;fontSize=14" vertex="1" parent="1">
          <mxGeometry x="280" y="1770" width="130" height="60" as="geometry" />
        </mxCell>
        <mxCell id="-G2UdXY7vb77so0GBM8C-208" value="" style="fillColor=#12AAB5;strokeColor=none;opacity=30;" vertex="1" parent="1">
          <mxGeometry x="270" y="1880" width="150" height="80" as="geometry" />
        </mxCell>
        <mxCell id="-G2UdXY7vb77so0GBM8C-209" value="Non-diiscrimination" style="rounded=1;fillColor=#23445D;gradientColor=none;strokeColor=none;fontColor=#FFFFFF;fontStyle=1;fontFamily=Tahoma;fontSize=14" vertex="1" parent="1">
          <mxGeometry x="280" y="1890" width="130" height="60" as="geometry" />
        </mxCell>
        <mxCell id="-G2UdXY7vb77so0GBM8C-210" value="" style="fillColor=#12AAB5;strokeColor=none;opacity=30;" vertex="1" parent="1">
          <mxGeometry x="-21.999999999999986" y="2001" width="150" height="80" as="geometry" />
        </mxCell>
        <mxCell id="-G2UdXY7vb77so0GBM8C-211" value="Freedom of&#xa;Association" style="rounded=1;fillColor=#23445D;gradientColor=none;strokeColor=none;fontColor=#FFFFFF;fontStyle=1;fontFamily=Tahoma;fontSize=14" vertex="1" parent="1">
          <mxGeometry x="-12" y="2011" width="130" height="60" as="geometry" />
        </mxCell>
        <mxCell id="-G2UdXY7vb77so0GBM8C-214" value="" style="fillColor=#12AAB5;strokeColor=none;opacity=30;" vertex="1" parent="1">
          <mxGeometry x="268" y="2001" width="150" height="80" as="geometry" />
        </mxCell>
        <mxCell id="-G2UdXY7vb77so0GBM8C-215" value="Child Labour" style="rounded=1;fillColor=#23445D;gradientColor=none;strokeColor=none;fontColor=#FFFFFF;fontStyle=1;fontFamily=Tahoma;fontSize=14" vertex="1" parent="1">
          <mxGeometry x="278" y="2011" width="130" height="60" as="geometry" />
        </mxCell>
      </root>
    </mxGraphModel>
  </diagram>
</mxfile>
